<?xml version="1.0" encoding="utf-8"?>
<!-- Generator: Adobe Illustrator 23.0.1, SVG Export Plug-In . SVG Version: 6.00 Build 0)  -->
<svg version="1.1" id="Warstwa_1" xmlns="http://www.w3.org/2000/svg" xmlns:xlink="http://www.w3.org/1999/xlink" x="0px" y="0px"
	 viewBox="0 0 816.2 700.6" style="enable-background:new 0 0 816.2 700.6;" xml:space="preserve">
<style type="text/css">
	.st0{fill:#FFFFFF;}
	.st1{fill:#E6E6E6;}
	.st2{fill:#FF9E00;}
	.st3{fill:#3F3D56;}
	.st4{fill:#CCCCCC;}
</style>
<path class="st0" d="M689,587.1H146c-17.9,0-32.5-14.6-32.5-32.5v-419c0-17.9,14.6-32.5,32.5-32.5h543c17.9,0,32.5,14.6,32.5,32.5
	v419C721.5,572.5,706.9,587.1,689,587.1z"/>
<path class="st1" d="M689,589.6H146c-19.3,0-35-15.7-35-35v-419c0-19.3,15.7-35,35-35h543c19.3,0,35,15.7,35,35v419
	C724,573.9,708.3,589.6,689,589.6z M146,106.6c-16,0-29,13-29,29v419c0,16,13,29,29,29h543c16,0,29-13,29-29v-419c0-16-13-29-29-29
	H146z"/>
<path class="st1" d="M502,240.9c-12.8,0-24.8,6-32.6,16.2c-13.6-5.9-29.4,0.4-35.3,14c-1.4,3.3-2.2,7-2.2,10.6h110.8
	C542.8,259.2,524.6,240.9,502,240.9C502,240.9,502,240.9,502,240.9z"/>
<circle class="st2" cx="259.2" cy="335" r="65.8"/>
<path class="st3" d="M644.4,470.5c-2.4,0.6-4.9,0.9-7.4,0.8H198c-5.4,0-10.7-1.4-15.5-4l1.2-1.7l49-70.5l72.6-104.5l1.1-1.5
	l11.4-16.4c2.6-3.8,7.8-4.7,11.6-2.1c0.8,0.6,1.5,1.3,2.1,2.1l37.9,54.6v0l22.3,32.1l53.3,76.7l80.8-115.3c2.6-3.8,7.8-4.7,11.6-2.1
	c0.8,0.6,1.5,1.3,2.1,2.1l51.8,74l3,4.3L644.4,470.5z"/>
<path class="st4" d="M414.7,309.1c-15.8,0-30.6,7.4-40.2,20c-16.8-7.2-36.3,0.5-43.5,17.3c-1.8,4.1-2.7,8.6-2.7,13.1h136.7
	C465.1,331.6,442.6,309.1,414.7,309.1C414.7,309.1,414.7,309.1,414.7,309.1z"/>
<path class="st3" d="M637,472.3H198c-18.2,0-33-14.7-33-32.9c0,0,0,0,0-0.1V189.1c0-18.2,14.8-33,33-33h439c18.2,0,33,14.8,33,33
	v250.2C670,457.5,655.3,472.3,637,472.3C637.1,472.3,637,472.3,637,472.3z M198,158.1c-17.1,0-31,13.9-31,31v250.2
	c0,17.1,13.8,31,30.9,31c0,0,0,0,0.1,0h439c17.1,0,31-13.8,31-30.9c0,0,0,0,0-0.1V189.1c0-17.1-13.9-31-31-31L198,158.1z"/>
</svg>
